<svg width="493" height="85" viewBox="0 0 493 85" fill="none" xmlns="http://www.w3.org/2000/svg">
<rect width="493" height="85" fill="white"/>
<path d="M5.472 19.592H14.472V63.224H40.608V71H5.472V19.592ZM62.7278 72.008C59.7518 72.008 57.0878 71.528 54.7358 70.568C52.4318 69.56 50.4638 68.192 48.8318 66.464C47.2478 64.736 46.0238 62.672 45.1598 60.272C44.3438 57.872 43.9358 55.232 43.9358 52.352C43.9358 49.52 44.3438 46.904 45.1598 44.504C46.0238 42.104 47.2478 40.04 48.8318 38.312C50.4638 36.584 52.4318 35.24 54.7358 34.28C57.0878 33.272 59.7518 32.768 62.7278 32.768C65.7038 32.768 68.3438 33.272 70.6478 34.28C72.9998 35.24 74.9678 36.584 76.5518 38.312C78.1838 40.04 79.4078 42.104 80.2238 44.504C81.0878 46.904 81.5198 49.52 81.5198 52.352C81.5198 55.232 81.0878 57.872 80.2238 60.272C79.4078 62.672 78.1838 64.736 76.5518 66.464C74.9678 68.192 72.9998 69.56 70.6478 70.568C68.3438 71.528 65.7038 72.008 62.7278 72.008ZM62.7278 65.528C64.5518 65.528 66.1358 65.144 67.4798 64.376C68.8238 63.608 69.9278 62.6 70.7918 61.352C71.6558 60.104 72.2798 58.712 72.6638 57.176C73.0958 55.592 73.3118 53.984 73.3118 52.352C73.3118 50.768 73.0958 49.184 72.6638 47.6C72.2798 46.016 71.6558 44.624 70.7918 43.424C69.9278 42.176 68.8238 41.168 67.4798 40.4C66.1358 39.632 64.5518 39.248 62.7278 39.248C60.9038 39.248 59.3198 39.632 57.9758 40.4C56.6318 41.168 55.5278 42.176 54.6638 43.424C53.7998 44.624 53.1518 46.016 52.7198 47.6C52.3358 49.184 52.1438 50.768 52.1438 52.352C52.1438 53.984 52.3358 55.592 52.7198 57.176C53.1518 58.712 53.7998 60.104 54.6638 61.352C55.5278 62.6 56.6318 63.608 57.9758 64.376C59.3198 65.144 60.9038 65.528 62.7278 65.528ZM88.3434 33.776H96.0474V40.976H96.1914C96.4314 39.968 96.8874 38.984 97.5594 38.024C98.2794 37.064 99.1194 36.2 100.079 35.432C101.087 34.616 102.191 33.968 103.391 33.488C104.591 33.008 105.815 32.768 107.063 32.768C108.023 32.768 108.671 32.792 109.007 32.84C109.391 32.888 109.775 32.936 110.159 32.984V40.904C109.583 40.808 108.983 40.736 108.359 40.688C107.783 40.592 107.207 40.544 106.631 40.544C105.239 40.544 103.919 40.832 102.671 41.408C101.471 41.936 100.415 42.752 99.5034 43.856C98.5914 44.912 97.8714 46.232 97.3434 47.816C96.8154 49.4 96.5514 51.224 96.5514 53.288V71H88.3434V33.776ZM144.832 62.72C144.832 63.728 144.952 64.448 145.192 64.88C145.48 65.312 146.008 65.528 146.776 65.528C147.016 65.528 147.304 65.528 147.64 65.528C147.976 65.528 148.36 65.48 148.792 65.384V71.072C148.504 71.168 148.12 71.264 147.64 71.36C147.208 71.504 146.752 71.624 146.272 71.72C145.792 71.816 145.312 71.888 144.832 71.936C144.352 71.984 143.944 72.008 143.608 72.008C141.928 72.008 140.536 71.672 139.432 71C138.328 70.328 137.608 69.152 137.272 67.472C135.64 69.056 133.624 70.208 131.224 70.928C128.872 71.648 126.592 72.008 124.384 72.008C122.704 72.008 121.096 71.768 119.56 71.288C118.024 70.856 116.656 70.208 115.456 69.344C114.304 68.432 113.368 67.304 112.648 65.96C111.976 64.568 111.64 62.96 111.64 61.136C111.64 58.832 112.048 56.96 112.864 55.52C113.728 54.08 114.832 52.952 116.176 52.136C117.568 51.32 119.104 50.744 120.784 50.408C122.512 50.024 124.24 49.736 125.968 49.544C127.456 49.256 128.872 49.064 130.216 48.968C131.56 48.824 132.736 48.608 133.744 48.32C134.8 48.032 135.616 47.6 136.192 47.024C136.816 46.4 137.128 45.488 137.128 44.288C137.128 43.232 136.864 42.368 136.336 41.696C135.856 41.024 135.232 40.52 134.464 40.184C133.744 39.8 132.928 39.56 132.016 39.464C131.104 39.32 130.24 39.248 129.424 39.248C127.12 39.248 125.224 39.728 123.736 40.688C122.248 41.648 121.408 43.136 121.216 45.152H113.008C113.152 42.752 113.728 40.76 114.736 39.176C115.744 37.592 117.016 36.32 118.552 35.36C120.136 34.4 121.912 33.728 123.88 33.344C125.848 32.96 127.864 32.768 129.928 32.768C131.752 32.768 133.552 32.96 135.328 33.344C137.104 33.728 138.688 34.352 140.08 35.216C141.52 36.08 142.672 37.208 143.536 38.6C144.4 39.944 144.832 41.6 144.832 43.568V62.72ZM136.624 52.352C135.376 53.168 133.84 53.672 132.016 53.864C130.192 54.008 128.368 54.248 126.544 54.584C125.68 54.728 124.84 54.944 124.024 55.232C123.208 55.472 122.488 55.832 121.864 56.312C121.24 56.744 120.736 57.344 120.352 58.112C120.016 58.832 119.848 59.72 119.848 60.776C119.848 61.688 120.112 62.456 120.64 63.08C121.168 63.704 121.792 64.208 122.512 64.592C123.28 64.928 124.096 65.168 124.96 65.312C125.872 65.456 126.688 65.528 127.408 65.528C128.32 65.528 129.304 65.408 130.36 65.168C131.416 64.928 132.4 64.52 133.312 63.944C134.272 63.368 135.064 62.648 135.688 61.784C136.312 60.872 136.624 59.768 136.624 58.472V52.352ZM152.872 47.528H173.824V55.304H152.872V47.528ZM176.968 19.592H186.328L199.216 60.272H199.36L212.536 19.592H221.68L204.112 71H194.104L176.968 19.592ZM255.68 71H247.616V65.816H247.472C246.464 67.688 244.952 69.2 242.936 70.352C240.968 71.456 238.952 72.008 236.888 72.008C231.992 72.008 228.44 70.808 226.232 68.408C224.072 65.96 222.992 62.288 222.992 57.392V33.776H231.2V56.6C231.2 59.864 231.824 62.168 233.072 63.512C234.32 64.856 236.072 65.528 238.328 65.528C240.056 65.528 241.496 65.264 242.648 64.736C243.8 64.208 244.736 63.512 245.456 62.648C246.176 61.736 246.68 60.656 246.968 59.408C247.304 58.16 247.472 56.816 247.472 55.376V33.776H255.68V71ZM289.896 49.112C289.8 47.816 289.512 46.568 289.032 45.368C288.6 44.168 287.976 43.136 287.16 42.272C286.392 41.36 285.432 40.64 284.28 40.112C283.176 39.536 281.928 39.248 280.536 39.248C279.096 39.248 277.776 39.512 276.576 40.04C275.424 40.52 274.416 41.216 273.552 42.128C272.736 42.992 272.064 44.024 271.536 45.224C271.056 46.424 270.792 47.72 270.744 49.112H289.896ZM270.744 54.512C270.744 55.952 270.936 57.344 271.32 58.688C271.752 60.032 272.376 61.208 273.192 62.216C274.008 63.224 275.04 64.04 276.288 64.664C277.536 65.24 279.024 65.528 280.752 65.528C283.152 65.528 285.072 65.024 286.512 64.016C288 62.96 289.104 61.4 289.824 59.336H297.6C297.168 61.352 296.424 63.152 295.368 64.736C294.312 66.32 293.04 67.664 291.552 68.768C290.064 69.824 288.384 70.616 286.512 71.144C284.688 71.72 282.768 72.008 280.752 72.008C277.824 72.008 275.232 71.528 272.976 70.568C270.72 69.608 268.8 68.264 267.216 66.536C265.68 64.808 264.504 62.744 263.688 60.344C262.92 57.944 262.536 55.304 262.536 52.424C262.536 49.784 262.944 47.288 263.76 44.936C264.624 42.536 265.824 40.448 267.36 38.672C268.944 36.848 270.84 35.408 273.048 34.352C275.256 33.296 277.752 32.768 280.536 32.768C283.464 32.768 286.08 33.392 288.384 34.64C290.736 35.84 292.68 37.448 294.216 39.464C295.752 41.48 296.856 43.808 297.528 46.448C298.248 49.04 298.44 51.728 298.104 54.512H270.744Z" fill="#2C3E50"/>
<rect x="401.876" y="68.6278" width="102.222" height="19.8603" transform="rotate(-40 401.876 68.6278)" fill="#2C3E50"/>
<rect x="401.876" y="51.9873" width="13.4349" height="32.127" fill="white"/>
<rect x="480.149" width="12.8508" height="31.5429" fill="white"/>
<rect x="354.562" y="68.6278" width="102.222" height="19.8603" transform="rotate(-40 354.562 68.6278)" fill="#215C42"/>
<rect x="354.562" y="51.9873" width="13.4349" height="32.127" fill="white"/>
<rect x="432.835" width="12.8508" height="31.5429" fill="white"/>
<rect x="309" y="67.4596" width="102.222" height="19.8603" transform="rotate(-40 309 67.4596)" fill="#42B983"/>
<rect x="309" y="14.6032" width="13.4349" height="68.3429" fill="white"/>
<rect x="387.273" width="12.8508" height="28.6222" fill="white"/>
</svg>
