<svg width="315" height="222" viewBox="0 0 315 222" fill="none" xmlns="http://www.w3.org/2000/svg">
<rect width="315" height="222" fill="white"/>
<rect x="159" y="117.488" width="175" height="34" transform="rotate(-40 159 117.488)" fill="#2C3E50"/>
<rect x="159" y="89" width="23" height="55" fill="white"/>
<rect x="293" width="22" height="54" fill="white"/>
<rect x="78" y="117.488" width="175" height="34" transform="rotate(-40 78 117.488)" fill="#215C42"/>
<rect x="78" y="89" width="23" height="55" fill="white"/>
<rect x="212" width="22" height="54" fill="white"/>
<rect y="115.488" width="175" height="34" transform="rotate(-40 0 115.488)" fill="#42B983"/>
<rect y="25" width="23" height="117" fill="white"/>
<rect x="134" width="22" height="49" fill="white"/>
<path d="M13.472 166.592H22.472V210.224H48.608V218H13.472V166.592ZM70.7278 219.008C67.7518 219.008 65.0878 218.528 62.7358 217.568C60.4318 216.56 58.4638 215.192 56.8318 213.464C55.2478 211.736 54.0238 209.672 53.1598 207.272C52.3438 204.872 51.9358 202.232 51.9358 199.352C51.9358 196.52 52.3438 193.904 53.1598 191.504C54.0238 189.104 55.2478 187.04 56.8318 185.312C58.4638 183.584 60.4318 182.24 62.7358 181.28C65.0878 180.272 67.7518 179.768 70.7278 179.768C73.7038 179.768 76.3438 180.272 78.6478 181.28C80.9998 182.24 82.9678 183.584 84.5518 185.312C86.1838 187.04 87.4078 189.104 88.2238 191.504C89.0878 193.904 89.5198 196.52 89.5198 199.352C89.5198 202.232 89.0878 204.872 88.2238 207.272C87.4078 209.672 86.1838 211.736 84.5518 213.464C82.9678 215.192 80.9998 216.56 78.6478 217.568C76.3438 218.528 73.7038 219.008 70.7278 219.008ZM70.7278 212.528C72.5518 212.528 74.1358 212.144 75.4798 211.376C76.8238 210.608 77.9278 209.6 78.7918 208.352C79.6558 207.104 80.2798 205.712 80.6638 204.176C81.0958 202.592 81.3118 200.984 81.3118 199.352C81.3118 197.768 81.0958 196.184 80.6638 194.6C80.2798 193.016 79.6558 191.624 78.7918 190.424C77.9278 189.176 76.8238 188.168 75.4798 187.4C74.1358 186.632 72.5518 186.248 70.7278 186.248C68.9038 186.248 67.3198 186.632 65.9758 187.4C64.6318 188.168 63.5278 189.176 62.6638 190.424C61.7998 191.624 61.1518 193.016 60.7198 194.6C60.3358 196.184 60.1438 197.768 60.1438 199.352C60.1438 200.984 60.3358 202.592 60.7198 204.176C61.1518 205.712 61.7998 207.104 62.6638 208.352C63.5278 209.6 64.6318 210.608 65.9758 211.376C67.3198 212.144 68.9038 212.528 70.7278 212.528ZM96.3434 180.776H104.047V187.976H104.191C104.431 186.968 104.887 185.984 105.559 185.024C106.279 184.064 107.119 183.2 108.079 182.432C109.087 181.616 110.191 180.968 111.391 180.488C112.591 180.008 113.815 179.768 115.063 179.768C116.023 179.768 116.671 179.792 117.007 179.84C117.391 179.888 117.775 179.936 118.159 179.984V187.904C117.583 187.808 116.983 187.736 116.359 187.688C115.783 187.592 115.207 187.544 114.631 187.544C113.239 187.544 111.919 187.832 110.671 188.408C109.471 188.936 108.415 189.752 107.503 190.856C106.591 191.912 105.871 193.232 105.343 194.816C104.815 196.4 104.551 198.224 104.551 200.288V218H96.3434V180.776ZM152.832 209.72C152.832 210.728 152.952 211.448 153.192 211.88C153.48 212.312 154.008 212.528 154.776 212.528C155.016 212.528 155.304 212.528 155.64 212.528C155.976 212.528 156.36 212.48 156.792 212.384V218.072C156.504 218.168 156.12 218.264 155.64 218.36C155.208 218.504 154.752 218.624 154.272 218.72C153.792 218.816 153.312 218.888 152.832 218.936C152.352 218.984 151.944 219.008 151.608 219.008C149.928 219.008 148.536 218.672 147.432 218C146.328 217.328 145.608 216.152 145.272 214.472C143.64 216.056 141.624 217.208 139.224 217.928C136.872 218.648 134.592 219.008 132.384 219.008C130.704 219.008 129.096 218.768 127.56 218.288C126.024 217.856 124.656 217.208 123.456 216.344C122.304 215.432 121.368 214.304 120.648 212.96C119.976 211.568 119.64 209.96 119.64 208.136C119.64 205.832 120.048 203.96 120.864 202.52C121.728 201.08 122.832 199.952 124.176 199.136C125.568 198.32 127.104 197.744 128.784 197.408C130.512 197.024 132.24 196.736 133.968 196.544C135.456 196.256 136.872 196.064 138.216 195.968C139.56 195.824 140.736 195.608 141.744 195.32C142.8 195.032 143.616 194.6 144.192 194.024C144.816 193.4 145.128 192.488 145.128 191.288C145.128 190.232 144.864 189.368 144.336 188.696C143.856 188.024 143.232 187.52 142.464 187.184C141.744 186.8 140.928 186.56 140.016 186.464C139.104 186.32 138.24 186.248 137.424 186.248C135.12 186.248 133.224 186.728 131.736 187.688C130.248 188.648 129.408 190.136 129.216 192.152H121.008C121.152 189.752 121.728 187.76 122.736 186.176C123.744 184.592 125.016 183.32 126.552 182.36C128.136 181.4 129.912 180.728 131.88 180.344C133.848 179.96 135.864 179.768 137.928 179.768C139.752 179.768 141.552 179.96 143.328 180.344C145.104 180.728 146.688 181.352 148.08 182.216C149.52 183.08 150.672 184.208 151.536 185.6C152.4 186.944 152.832 188.6 152.832 190.568V209.72ZM144.624 199.352C143.376 200.168 141.84 200.672 140.016 200.864C138.192 201.008 136.368 201.248 134.544 201.584C133.68 201.728 132.84 201.944 132.024 202.232C131.208 202.472 130.488 202.832 129.864 203.312C129.24 203.744 128.736 204.344 128.352 205.112C128.016 205.832 127.848 206.72 127.848 207.776C127.848 208.688 128.112 209.456 128.64 210.08C129.168 210.704 129.792 211.208 130.512 211.592C131.28 211.928 132.096 212.168 132.96 212.312C133.872 212.456 134.688 212.528 135.408 212.528C136.32 212.528 137.304 212.408 138.36 212.168C139.416 211.928 140.4 211.52 141.312 210.944C142.272 210.368 143.064 209.648 143.688 208.784C144.312 207.872 144.624 206.768 144.624 205.472V199.352ZM160.872 194.528H181.824V202.304H160.872V194.528ZM184.968 166.592H194.328L207.216 207.272H207.36L220.536 166.592H229.68L212.112 218H202.104L184.968 166.592ZM263.68 218H255.616V212.816H255.472C254.464 214.688 252.952 216.2 250.936 217.352C248.968 218.456 246.952 219.008 244.888 219.008C239.992 219.008 236.44 217.808 234.232 215.408C232.072 212.96 230.992 209.288 230.992 204.392V180.776H239.2V203.6C239.2 206.864 239.824 209.168 241.072 210.512C242.32 211.856 244.072 212.528 246.328 212.528C248.056 212.528 249.496 212.264 250.648 211.736C251.8 211.208 252.736 210.512 253.456 209.648C254.176 208.736 254.68 207.656 254.968 206.408C255.304 205.16 255.472 203.816 255.472 202.376V180.776H263.68V218ZM297.896 196.112C297.8 194.816 297.512 193.568 297.032 192.368C296.6 191.168 295.976 190.136 295.16 189.272C294.392 188.36 293.432 187.64 292.28 187.112C291.176 186.536 289.928 186.248 288.536 186.248C287.096 186.248 285.776 186.512 284.576 187.04C283.424 187.52 282.416 188.216 281.552 189.128C280.736 189.992 280.064 191.024 279.536 192.224C279.056 193.424 278.792 194.72 278.744 196.112H297.896ZM278.744 201.512C278.744 202.952 278.936 204.344 279.32 205.688C279.752 207.032 280.376 208.208 281.192 209.216C282.008 210.224 283.04 211.04 284.288 211.664C285.536 212.24 287.024 212.528 288.752 212.528C291.152 212.528 293.072 212.024 294.512 211.016C296 209.96 297.104 208.4 297.824 206.336H305.6C305.168 208.352 304.424 210.152 303.368 211.736C302.312 213.32 301.04 214.664 299.552 215.768C298.064 216.824 296.384 217.616 294.512 218.144C292.688 218.72 290.768 219.008 288.752 219.008C285.824 219.008 283.232 218.528 280.976 217.568C278.72 216.608 276.8 215.264 275.216 213.536C273.68 211.808 272.504 209.744 271.688 207.344C270.92 204.944 270.536 202.304 270.536 199.424C270.536 196.784 270.944 194.288 271.76 191.936C272.624 189.536 273.824 187.448 275.36 185.672C276.944 183.848 278.84 182.408 281.048 181.352C283.256 180.296 285.752 179.768 288.536 179.768C291.464 179.768 294.08 180.392 296.384 181.64C298.736 182.84 300.68 184.448 302.216 186.464C303.752 188.48 304.856 190.808 305.528 193.448C306.248 196.04 306.44 198.728 306.104 201.512H278.744Z" fill="#2C3E50"/>
</svg>
